<svg width="9" height="11" viewBox="0 0 9 11" fill="none" xmlns="http://www.w3.org/2000/svg">
    <path d="M1 11C0.694445 10.9944 0.452778 10.9028 0.275 10.725C0.0972224 10.5472 0.00555568 10.3056 8.9407e-08 10V1C0.00555568 0.694444 0.0972224 0.452778 0.275 0.275C0.452778 0.0972221 0.694445 0.00555527 1 -5.96046e-07H5.41667L9 3.58333V10C8.98889 10.3056 8.88611 10.5472 8.69167 10.725C8.49167 10.9028 8.26111 10.9944 8 11H1ZM2 3V4H6V3H2ZM2 5V6H7V5H2ZM2 7V8H7V7H2ZM1 10H8V4L5 1H1V10Z" fill="#3072C4"/>
</svg>
