<svg width="17" height="16" viewBox="0 0 17 16" fill="none" xmlns="http://www.w3.org/2000/svg">
    <path fill-rule="evenodd" clip-rule="evenodd" d="M0.391052 5.92999L5.39782 5.99999V7.23999C5.46791 7.16999 5.51798 7.08999 5.54802 6.99999C5.91852 6.05999 6.3491 5.39999 6.81974 4.99999C7.64085 4.35999 8.0514 3.23999 8.0514 2.05999C8.0514 0.87999 8.10147 -1.02334e-05 9.25303 -1.02334e-05C10.9954 -0.0200102 11.5561 1.69999 11.5561 2.75999C11.5561 3.40999 11.5361 4.03999 11.2958 5.00999H13.5989C15.5816 5.00999 16.8032 6.10999 16.4027 8.50999L15.902 11.51C15.1009 15.01 13.669 14.93 11.3959 15.01H8.40188C6.87982 15.01 6.15885 14.51 5.39782 14.51V16H0.391052V5.92999ZM5.39782 13.5C6.84978 13.56 6.87982 14.02 8.40188 14.02H11.4059C13.4086 13.94 14.2798 14.02 14.9107 11.39L15.4113 8.48999C15.6617 6.73999 15.2912 5.98999 13.4086 5.98999H11.4059C10.9854 5.98999 10.0842 5.78999 10.3545 4.60999C10.4547 4.14999 10.6049 3.48999 10.5548 2.82999C10.4246 1.02999 9.55343 0.99999 9.33314 0.98999C9.13287 0.98999 9.06277 0.86999 9.03273 2.18999C9.0127 4.18999 8.01135 5.34999 7.29038 5.91999C6.4192 6.61999 6.62948 8.41999 5.3878 8.41999V13.49L5.39782 13.5ZM1.39241 6.99999V15H4.39646V6.99999H1.39241ZM2.89444 14C2.61406 14 2.39376 13.78 2.39376 13.5C2.39376 13.22 2.61406 13 2.89444 13C3.17481 13 3.39511 13.22 3.39511 13.5C3.39511 13.78 3.17481 14 2.89444 14Z" fill="#A0A0A0"/>
</svg>