<svg width="12" height="12" viewBox="0 0 12 12" fill="none" xmlns="http://www.w3.org/2000/svg">
<path d="M11 5C10.7611 5.06667 10.5389 5.08611 10.3333 5.05833C10.1222 5.03056 10.0111 5.01111 10 5L7.63333 7.63333C8.20556 8.82778 8.27778 9.76389 7.85 10.4417C7.41667 11.125 7.14444 11.4722 7.03333 11.4833L4.28333 8.71667L2 11L4.47035e-08 12L1 10L3.28333 7.71667L0.433333 4.85C0.45 4.74444 0.811111 4.49167 1.51667 4.09167C2.21667 3.69722 3.16667 3.78889 4.36667 4.36667L7 2C6.98889 1.98889 6.96944 1.88611 6.94167 1.69167C6.90833 1.49722 6.92778 1.26667 7 1C7.09444 0.744444 7.21944 0.516666 7.375 0.316666C7.53056 0.116666 7.61667 0.0111106 7.63333 -5.96046e-07L12 4.36667C11.9944 4.38333 11.8944 4.46667 11.7 4.61667C11.5111 4.77222 11.2778 4.9 11 5Z" fill="#3072C4"/>
</svg>
