<svg width="19" height="18" viewBox="0 0 19 18" fill="none" xmlns="http://www.w3.org/2000/svg">
<g clip-path="url(#clip0)">
<path fill-rule="evenodd" clip-rule="evenodd" d="M1.39105 5.92999L6.39782 5.99999V7.23999C6.46791 7.16999 6.51798 7.08999 6.54802 6.99999C6.91852 6.05999 7.3491 5.39999 7.81974 4.99999C8.64085 4.35999 9.0514 3.23999 9.0514 2.05999C9.0514 0.87999 9.10147 -1.02334e-05 10.253 -1.02334e-05C11.9954 -0.0200102 12.5561 1.69999 12.5561 2.75999C12.5561 3.40999 12.5361 4.03999 12.2958 5.00999H14.5989C16.5816 5.00999 17.8032 6.10999 17.4027 8.50999L16.902 11.51C16.1009 15.01 14.669 14.93 12.3959 15.01H9.40188C7.87982 15.01 7.15885 14.51 6.39782 14.51V16H1.39105V5.92999ZM6.39782 13.5C7.84978 13.56 7.87982 14.02 9.40188 14.02H12.4059C14.4086 13.94 15.2798 14.02 15.9107 11.39L16.4113 8.48999C16.6617 6.73999 16.2912 5.98999 14.4086 5.98999H12.4059C11.9854 5.98999 11.0842 5.78999 11.3545 4.60999C11.4547 4.14999 11.6049 3.48999 11.5548 2.82999C11.4246 1.02999 10.5534 0.99999 10.3331 0.98999C10.1329 0.98999 10.0628 0.86999 10.0327 2.18999C10.0127 4.18999 9.01135 5.34999 8.29038 5.91999C7.4192 6.61999 7.62948 8.41999 6.3878 8.41999V13.49L6.39782 13.5ZM2.39241 6.99999V15H5.39646V6.99999H2.39241ZM3.89444 14C3.61406 14 3.39376 13.78 3.39376 13.5C3.39376 13.22 3.61406 13 3.89444 13C4.17481 13 4.39511 13.22 4.39511 13.5C4.39511 13.78 4.17481 14 3.89444 14Z" fill="#A0A0A0"/>
</g>
<defs>
<clipPath id="clip0">
<rect width="18.0244" height="18" fill="white" transform="translate(0.389709)"/>
</clipPath>
</defs>
</svg>
