<svg width="6" height="24" viewBox="0 0 6 24" fill="none" xmlns="http://www.w3.org/2000/svg">
<path fill-rule="evenodd" clip-rule="evenodd" d="M5.70964 21.2903C5.70964 19.7938 4.49647 18.5806 2.99996 18.5806C1.50345 18.5806 0.290283 19.7938 0.290283 21.2903C0.290283 22.7868 1.50345 24 2.99996 24C4.49647 24 5.70964 22.7868 5.70964 21.2903ZM5.70964 2.70968C5.70964 1.21316 4.49647 0 2.99996 0C1.50345 0 0.290283 1.21316 0.290283 2.70968C0.290283 4.20619 1.50345 5.41936 2.99996 5.41936C4.49647 5.41936 5.70964 4.20619 5.70964 2.70968ZM2.99996 9.29032C4.49647 9.29032 5.70964 10.5035 5.70964 12C5.70964 13.4965 4.49647 14.7097 2.99996 14.7097C1.50345 14.7097 0.290283 13.4965 0.290283 12C0.290283 10.5035 1.50345 9.29032 2.99996 9.29032Z" fill="#A0A0A0"/>
</svg>
